{"title":"Funny Pics Compilation Part 9","uid":15981613,"size":222134453,"categoryP":"video","categoryS":"other","magnet":"?xt=urn:btih:c85c5b1cf3602c4e625399973826634130bb51a8&amp;dn=Funny+Pics+Compilation+Part+9&amp;tr=udp%3A%2F%2Ftracker.leechers-paradise.org%3A6969&amp;tr=udp%3A%2F%2Fzer0day.ch%3A1337&amp;tr=udp%3A%2F%2Fopen.demonii.com%3A1337&amp;tr=udp%3A%2F%2Ftracker.coppersurfer.tk%3A6969&amp;tr=udp%3A%2F%2Fexodus.desync.com%3A6969","seeders":4,"leechers":0,"uploader":"nico1899","files":3,"time":1475904055,"description":"Funny Pics Compilation Part 9\r\n\r\nScreenshots\r\n    \nhttp://imgprix.com/video/funny-pics-compilation-part-9\r\n\r\nFormat                                   : MPEG-4\r\nFormat profile                           : Base Media / Version 2\r\nCodec ID                                 : mp42 (mp41/isom)\r\nFile size                                : 212 MiB\r\nDuration                                 : 12 min 42 s\r\nOverall bit rate                         : 2 330 kb/s\r\nEncoded date                             : UTC 2016-10-08 02:44:08\r\nTagged date                              : UTC 2016-10-08 02:44:08\r\n\r\nVideo\r\nID                                       : 1\r\nFormat                                   : AVC\r\nFormat/Info                              : Advanced Video Codec\r\nFormat profile                           :   \r\nFormat settings, CABAC                   : No\r\nFormat settings, ReFrames                : 2 frames\r\nFormat settings, GOP                     : M=1, N=30\r\nCodec ID                                 : avc1\r\nCodec ID/Info                            : Advanced Video Coding\r\nDuration                                 : 12 min 42 s\r\nSource duration                          : 12 min 42 s\r\nBit rate                                 : 2 134 kb/s\r\nWidth                                    : 1 920 pixels\r\nHeight                                   : 1 080 pixels\r\nDisplay aspect ratio                     : 16:9\r\nFrame rate mode                          : Constant\r\nFrame rate                               : 29.970 (29970/1000) FPS\r\nColor space                              : YUV\r\nChroma subsampling                       : 4:2:0\r\nBit depth                                : 8 bits\r\nScan type                                : Progressive\r\nBits/(Pixel*Frame)                       : 0.034\r\nStream size                              : 194 MiB (92%)\r\nSource stream size                       : 194 MiB (92%)\r\nEncoded date                             : UTC 2016-10-08 02:44:08\r\nTagged date                              : UTC 2016-10-08 02:44:08\r\nmdhd_Duration                            : 762595\r\n\r\nAudio\r\nID                                       : 2\r\nFormat                                   : AAC\r\nFormat/Info                              : Advanced Audio Codec\r\nFormat profile                           : LC\r\nCodec ID                                 : 40\r\nDuration                                 : 12 min 42 s\r\nBit rate mode                            : Constant\r\nBit rate                                 : 192 kb/s\r\nChannel(s)                               : 2 channels\r\nChannel positions                        : Front: L R\r\nSampling rate                            : 48.0 kHz\r\nFrame rate                               : 46.875 FPS (1024 spf)\r\nCompression mode                         : Lossy\r\nStream size                              : 17.6 MiB (8%)\r\nEncoded date                             : UTC 2016-10-08 02:44:08\r\nTagged date                              : UTC 2016-10-08 02:44:08\r\nmdhd_Duration                            : 762603","torrent":{"xt":"urn:btih:c85c5b1cf3602c4e625399973826634130bb51a8","amp;dn":"Funny+Pics+Compilation+Part+9","amp;tr":["udp%3A%2F%2Ftracker.leechers-paradise.org%3A6969","udp%3A%2F%2Fzer0day.ch%3A1337","udp%3A%2F%2Fopen.demonii.com%3A1337","udp%3A%2F%2Ftracker.coppersurfer.tk%3A6969","udp%3A%2F%2Fexodus.desync.com%3A6969"],"infoHash":"c85c5b1cf3602c4e625399973826634130bb51a8","infoHashBuffer":{"type":"Buffer","data":[200,92,91,28,243,96,44,78,98,83,153,151,56,38,99,65,48,187,81,168]},"announce":[],"urlList":[]}}